:version 1.10
:name ASF
:units
  mass 1
  length 1
  angle deg
:documentation
  ASF file generated by Kaydara
:root
  axis xyz
  order  tx ty tz rx ry rz
  position 0 0 0
  orientation 0 0 0
:bonedata
  begin
    id 1
    name abdomenDummy
    direction 1 -1.27917e-005 -1.26829e-007
    length 1.79048
    axis 0 0 0 xyz
  end
  begin
    id 2
    name abdomen
    direction 0.987238 0.159249 -9.68575e-008
    length 8.61378
    axis 2.73208e-005 5.54953e-006 9.16328 xyz
    dof rx ry rz
  end
  begin
    id 3
    name chest
    direction 0 0 0
    length 0
    axis 2.65071e-005 8.63688e-006 2.59796 xyz
    dof rx ry rz
  end
  begin
    id 4
    name neckDummyDummy
    direction 0.998972 0.0453274 -1.50742e-007
    length 9.56202
    axis 2.65071e-005 8.63688e-006 2.59796 xyz
  end
  begin
    id 5
    name neckDummy
    direction 0.99977 0.0214525 -1.61748e-007
    length 1.93574
    axis 2.62932e-005 9.26758e-006 1.22924 xyz
    dof rx ry rz
  end
  begin
    id 6
    name neck
    direction 0.99928 -0.0379406 -1.88707e-007
    length 3.70367
    axis 2.56966e-005 1.08122e-005 -2.17436 xyz
    dof rx ry rz
  end
  begin
    id 7
    name head
    direction 0.992648 -0.121037 -2.25408e-007
    length 6.35158
    axis 2.47068e-005 1.29149e-005 -6.95196 xyz
    dof rx ry rz
  end
  begin
    id 8
    name figureHair
    direction -0.86681 -0.498639 -7.83376e-008
    length 8.29884
    axis -2.7515e-005 4.48842e-006 -150.09 xyz
    dof rx ry rz
  end
  begin
    id 9
    name lCollarDummy
    direction 0.994611 0.0451299 -0.0933417
    length 9.60395
    axis 2.65071e-005 8.63688e-006 2.59796 xyz
  end
  begin
    id 10
    name lCollar
    direction 0.0384146 0.00127577 -0.999261
    length 6.95318
    axis 90.4899 87.7973 1.90202 xyz
    dof rx ry rz
  end
  begin
    id 11
    name lShldr
    direction -0.030648 0.0920515 -0.995282
    length 9.61158
    axis -161.793 84.4324 108.415 xyz
    dof rx ry rz
  end
  begin
    id 12
    name lForeArm
    direction 0.000163956 -0.0977586 -0.99521
    length 8.6068
    axis 0.134773 84.3899 -89.8525 xyz
    dof rx ry rz
  end
  begin
    id 13
    name lHand
    direction -0.0190533 -0.1444 -0.989336
    length 7.61479
    axis -7.3729 81.6249 -97.517 xyz
    dof rx ry rz
  end
  begin
    id 14
    name rCollarDummy
    direction 0.994871 0.0442627 0.0909555
    length 9.60761
    axis 2.65071e-005 8.63688e-006 2.59796 xyz
  end
  begin
    id 15
    name rCollar
    direction 0.0334251 -4.74072e-007 0.999441
    length 6.97058
    axis -178.152 -88.0845 -0.000674207 xyz
    dof rx ry rz
  end
  begin
    id 16
    name rShldr
    direction -0.026922 0.0719509 0.997045
    length 9.60913
    axis 71.2822 -85.594 110.514 xyz
    dof rx ry rz
  end
  begin
    id 17
    name rForeArm
    direction 0.00134679 -0.118986 0.992895
    length 8.57176
    axis -88.7923 -83.1659 -89.3516 xyz
    dof rx ry rz
  end
  begin
    id 18
    name rHand
    direction -0.0185183 -0.0768601 0.99687
    length 7.69687
    axis -74.5596 -85.4655 -103.546 xyz
    dof rx ry rz
  end
  begin
    id 19
    name lThighDummy
    direction -0.236086 -0.0385456 -0.970967
    length 4.99155
    axis 0 0 0 xyz
  end
  begin
    id 20
    name lThigh
    direction -0.993968 0.0148998 -0.108653
    length 13.572
    axis -91.4001 6.23768 179.141 xyz
    dof rx ry rz
  end
  begin
    id 21
    name lShin
    direction -0.992341 0.0904576 -0.0841193
    length 18.5862
    axis -91.4558 4.82538 174.792 xyz
    dof rx ry rz
  end
  begin
    id 22
    name lFoot
    direction 0.0209381 -0.999771 -0.00453005
    length 8.44474
    axis 4.86759 0.259522 -88.8001 xyz
    dof rx ry rz
  end
  begin
    id 23
    name rThighDummy
    direction -0.236086 -0.0385456 0.970967
    length 4.99155
    axis 0 0 0 xyz
  end
  begin
    id 24
    name rThigh
    direction -0.993968 0.0148995 0.108653
    length 13.5721
    axis -89.7059 -6.2377 179.141 xyz
    dof rx ry rz
  end
  begin
    id 25
    name rShin
    direction -0.9925 0.0899962 0.0827255
    length 18.6716
    axis -89.2745 -4.74775 174.819 xyz
    dof rx ry rz
  end
  begin
    id 26
    name rFoot
    direction 0.0301721 -0.999545 9.70865e-005
    length 8.45013
    axis -2.50066e-005 -0.00555246 -88.271 xyz
    dof rx ry rz
  end
:hierarchy
  begin
    root abdomenDummy lThighDummy rThighDummy
    abdomenDummy abdomen
    abdomen chest
    chest neckDummyDummy lCollarDummy rCollarDummy
    neckDummyDummy neckDummy
    neckDummy neck
    neck head
    head figureHair
    lCollarDummy lCollar
    lCollar lShldr
    lShldr lForeArm
    lForeArm lHand
    rCollarDummy rCollar
    rCollar rShldr
    rShldr rForeArm
    rForeArm rHand
    lThighDummy lThigh
    lThigh lShin
    lShin lFoot
    rThighDummy rThigh
    rThigh rShin
    rShin rFoot
  end

:SAMPLES-PER-SECOND 25
:FULLY-SPECIFIED
:DEGREES
1748
root  42.4479 35.5302 -26.9976 -74.574 -1.94476 93.4215
abdomen  -0.491623 -0.502841 1.6909
chest  -0.353272 -0.447271 -7.58613
neckDummy  9.09964e-021 0 8.72668e-016
neck  -6.33291 9.4491 -11.88
head  -7.21825 -16.933 -11.9598
figureHair  0 1.51661e-021 -9.5315e-016
lCollar  -5.15695e-016 -6.42944e-016 -7.59357e-014
lShldr  6.78536 14.4033 -71.9842
lForeArm  20.1884 -22.0962 -0.540609
lHand  0.254698 0.195082 5.2986
rCollar  1.7976e-016 -5.12864e-014 1.62755e-015
rShldr  -34.7207 66.3818 -21.5677
rForeArm  -0.518084 4.6396 11.0653
rHand  0.560505 -16.9632 1.03033
lThigh  -0.655989 -19.2306 -5.51113
lShin  8.173 3.30949 -2.00499
lFoot  -2.51668 -0.0649933 -15.3905
rThigh  1.45901 1.26816 6.25785
rShin  -30.151 21.7782 -6.59193
rFoot  -17.297 4.43471 9.39528
1749
root  43.0582 35.8088 -26.0307 -79.4907 -1.64236 93.6089
abdomen  -0.271958 1.71387 2.12648
chest  -0.470375 -1.56584 -7.18135
neckDummy  9.09964e-021 0 8.72668e-016
neck  -7.17486 8.99327 -13.7925
head  -7.787 -17.6364 -12.1785
figureHair  0 1.51661e-021 -9.5315e-016
lCollar  -5.15695e-016 -6.42944e-016 -7.59357e-014
lShldr  7.39084 14.8323 -71.7306
lForeArm  18.4092 -20.3095 -0.619179
lHand  0.254698 0.195082 5.2986
rCollar  1.7976e-016 -5.12864e-014 1.62755e-015
rShldr  -34.5181 66.2405 -23.1271
rForeArm  -2.34512 5.14934 10.0153
rHand  0.60512 -16.7473 0.714654
lThigh  -1.46755 -17.6168 -5.06042
lShin  4.04149 5.42798 -2.10906
lFoot  0.100945 -0.00263217 -12.6145
rThigh  -5.12687 -0.507338 4.79245
rShin  -28.0526 26.0214 -4.89338
rFoot  -11.6961 2.90073 6.46164
1750
root  43.5868 36.061 -25.1806 -84.7354 -1.23007 93.262
abdomen  -0.331409 2.37851 1.67652
chest  -0.557685 -1.56022 -6.30826
neckDummy  9.09964e-021 0 8.72668e-016
neck  -7.53555 8.5421 -15.5698
head  -8.01505 -17.7161 -11.8801
figureHair  0 1.51661e-021 -9.5315e-016
lCollar  -5.15695e-016 -6.42944e-016 -7.59357e-014
lShldr  8.90772 14.3409 -71.1248
lForeArm  16.4876 -17.8668 -0.787963
lHand  0.254698 0.195082 5.2986
rCollar  1.7976e-016 -5.12864e-014 1.62755e-015
rShldr  -35.8846 67.2491 -25.0769
rForeArm  -1.34233 4.56475 10.7541
rHand  0.67302 -16.4903 0.238952
lThigh  -3.51901 -14.8706 -3.33292
lShin  0.536601 5.70828 -3.21716
lFoot  -0.556606 0.045421 -9.58774
rThigh  -10.7987 -5.7407 3.33595
rShin  -27.0479 33.8755 -1.7695
rFoot  1.87996 -1.56582 0.57909
1751
root  44.0849 36.2356 -24.4712 -90.5807 -0.482758 92.7859
abdomen  -0.613547 1.97444 -0.134078
chest  -0.690979 -0.763241 -5.41611
neckDummy  9.09964e-021 0 8.72668e-016
neck  -7.15779 9.1183 -15.243
head  -7.79408 -17.4199 -11.6539
figureHair  0 1.51661e-021 -9.5315e-016
lCollar  -5.15695e-016 -6.42944e-016 -7.59357e-014
lShldr  10.0267 13.7127 -70.493
lForeArm  16.2912 -16.9802 -0.9787
lHand  0.254698 0.195082 5.2986
rCollar  1.7976e-016 -5.12864e-014 1.62755e-015
rShldr  -40.3634 68.2243 -25.9091
rForeArm  3.27993 2.76028 14.1989
rHand  0.71295 -16.077 -0.117184
lThigh  -5.50302 -11.2303 -1.90326
lShin  -2.92814 4.82535 -4.59842
lFoot  -0.0670031 -0.0755316 -7.81634
rThigh  -9.59577 -12.0421 1.94516
rShin  -30.2312 42.2528 -2.14711
rFoot  18.0101 -0.141492 -7.1914
1752
root  44.5404 36.3925 -23.7915 -95.4157 0.277451 92.2186
abdomen  -1.21988 2.63168 -2.27078
chest  -1.45025 -1.43674 -4.74997
neckDummy  9.09964e-021 0 8.72668e-016
neck  -6.28102 10.3756 -13.4628
head  -7.24426 -17.0528 -11.6965
figureHair  0 1.51661e-021 -9.5315e-016
lCollar  -5.15695e-016 -6.42944e-016 -7.59357e-014
lShldr  11.5072 13.119 -69.9225
lForeArm  17.2108 -17.5125 -0.878929
lHand  0.254698 0.195082 5.2986
rCollar  1.7976e-016 -5.12864e-014 1.62755e-015
rShldr  -44.0784 68.8648 -24.9938
rForeArm  4.98102 1.11494 18.5549
rHand  0.666507 -15.6974 0.0697948
lThigh  -6.65065 -7.58716 -1.17512
lShin  -6.56756 3.56373 -5.67042
lFoot  1.15648 -0.117734 -6.40378
rThigh  -7.87039 -18.2916 1.14007
rShin  -25.2285 50.257 -2.34258
rFoot  22.2867 -1.81677 -12.5965
1753
root  44.9169 36.5548 -23.089 -99.3956 0.513626 91.2378
abdomen  -1.82564 3.47891 -3.48968
chest  -2.30833 -2.95524 -4.4839
neckDummy  9.09964e-021 0 8.72668e-016
neck  -5.53686 11.037 -12.5043
head  -6.756 -16.6809 -11.3842
figureHair  0 1.51661e-021 -9.5315e-016
lCollar  -5.15695e-016 -6.42944e-016 -7.59357e-014
lShldr  12.5142 11.7314 -69.2656
lForeArm  18.2224 -17.6114 -0.86997
lHand  0.254698 0.195082 5.2986
rCollar  1.7976e-016 -5.12864e-014 1.62755e-015
rShldr  -44.7349 69.7252 -24.9783
rForeArm  1.4152 1.06297 21.8016
rHand  0.667729 -15.9994 0.146506
lThigh  -7.42184 -4.44622 -0.382472
lShin  -9.47724 2.15164 -6.51718
lFoot  1.19118 0.00831265 -4.65945
rThigh  -3.97219 -24.2763 0.774008
rShin  -15.8117 55.7606 -2.55811
rFoot  14.5829 -1.23737 -11.3843
1754
root  45.2204 36.6476 -22.4034 -103.541 0.235733 90.3704
abdomen  -1.98413 3.28488 -4.03444
chest  -2.57176 -3.3526 -4.39397
neckDummy  9.09964e-021 0 8.72668e-016
neck  -5.16296 10.783 -12.6159
head  -6.41469 -16.5194 -10.9097
figureHair  0 1.51661e-021 -9.5315e-016
lCollar  -5.15695e-016 -6.42944e-016 -7.59357e-014
lShldr  11.5537 9.54401 -68.645
lForeArm  18.3524 -17.0424 -0.993349
lHand  0.254698 0.195082 5.2986
rCollar  1.7976e-016 -5.12864e-014 1.62755e-015
rShldr  -46.3462 70.8868 -27.0604
rForeArm  -0.535797 1.05297 23.4713
rHand  0.767354 -16.8107 -0.248836
lThigh  -8.03296 -2.35684 0.262497
lShin  -12.5553 1.66972 -7.17327
lFoot  1.20987 -0.0797758 -3.06755
rThigh  0.935098 -28.7673 0.608909
rShin  -7.01612 56.012 -2.58311
rFoot  6.60949 -1.02005 -8.92564
1755
root  45.469 36.6689 -21.7204 -107.721 -0.0547791 89.9357
abdomen  -1.9605 3.03358 -4.72662
chest  -2.63833 -3.20675 -4.04591
neckDummy  9.09964e-021 0 8.72668e-016
neck  -4.89845 10.1806 -12.593
head  -6.02979 -16.8814 -10.999
figureHair  0 1.51661e-021 -9.5315e-016
lCollar  -5.15695e-016 -6.42944e-016 -7.59357e-014
lShldr  9.40971 7.58377 -68.1249
lForeArm  17.6443 -17.333 -0.908701
lHand  0.254698 0.195082 5.2986
rCollar  1.7976e-016 -5.12864e-014 1.62755e-015
rShldr  -48.5565 71.9307 -29.4069
rForeArm  -0.265689 1.04816 23.8846
rHand  0.827214 -16.8421 -0.60053
lThigh  -8.36515 -0.296198 0.240751
lShin  -16.1146 0.878413 -7.74333
lFoot  1.56445 -0.152983 -1.54894
rThigh  6.58378 -30.9881 0.22307
rShin  -3.10669 51.2396 -2.39174
rFoot  3.39656 -0.822716 -7.83411
1756
root  45.6392 36.5966 -20.9984 -111.178 -0.347076 89.8876
abdomen  -2.08441 3.63062 -5.48355
chest  -2.97734 -3.68893 -3.63763
neckDummy  9.09964e-021 0 8.72668e-016
neck  -4.7085 9.6144 -12.0504
head  -5.67133 -17.7203 -11.5537
figureHair  0 1.51661e-021 -9.5315e-016
lCollar  -5.15695e-016 -6.42944e-016 -7.59357e-014
lShldr  7.84818 6.19195 -67.4932
lForeArm  17.1863 -18.9784 -0.670045
lHand  0.254698 0.195082 5.2986
rCollar  1.7976e-016 -5.12864e-014 1.62755e-015
rShldr  -50.828 72.6666 -30.4673
rForeArm  -0.222826 1.05494 23.3253
rHand  0.801704 -15.952 -0.713638
lThigh  -8.50916 1.57421 -0.23893
lShin  -19.1814 0.255712 -8.26926
lFoot  1.3142 -0.146106 0.257884
rThigh  13.9125 -31.1693 -0.368256
rShin  -4.03039 43.2081 -2.1528
rFoot  2.20472 -0.717484 -6.85021
1757
root  45.7214 36.4486 -20.2214 -114.121 -0.668701 90.2227
abdomen  -2.28026 4.64545 -5.59415
chest  -3.40046 -4.47032 -3.70042
neckDummy  9.09964e-021 0 8.72668e-016
neck  -4.68514 9.01589 -11.3349
head  -5.49536 -18.5215 -11.9642
figureHair  0 1.51661e-021 -9.5315e-016
lCollar  -5.15695e-016 -6.42944e-016 -7.59357e-014
lShldr  6.41669 4.86176 -66.8366
lForeArm  18.033 -20.9779 -0.587707
lHand  0.254698 0.195082 5.2986
rCollar  1.7976e-016 -5.12864e-014 1.62755e-015
rShldr  -52.6966 73.1097 -30.3445
rForeArm  -0.924182 1.06688 22.3221
rHand  0.783477 -15.3907 -0.777164
lThigh  -8.24143 2.9202 -1.19504
lShin  -22.1269 0.0255344 -8.54547
lFoot  1.4131 -0.181283 1.91851
rThigh  23.9774 -29.9819 -0.717512
rShin  -7.52009 33.3691 -2.07767
rFoot  0.820859 -0.541784 -5.904
1758
root  45.7209 36.2542 -19.3908 -117.009 -0.929276 90.8981
abdomen  -2.40231 5.7307 -5.0694
chest  -3.6837 -5.19552 -4.12882
neckDummy  9.09964e-021 0 8.72668e-016
neck  -4.76456 8.37114 -10.866
head  -5.45684 -18.9598 -12.0417
figureHair  0 1.51661e-021 -9.5315e-016
lCollar  -5.15695e-016 -6.42944e-016 -7.59357e-014
lShldr  4.86348 3.53337 -66.4069
lForeArm  19.1011 -22.6513 -0.517498
lHand  0.254698 0.195082 5.2986
rCollar  1.7976e-016 -5.12864e-014 1.62755e-015
rShldr  -54.0985 73.3066 -30.1522
rForeArm  -1.0486 1.07913 21.2757
rHand  0.799892 -15.7183 -0.777652
lThigh  -7.64668 3.72831 -2.51471
lShin  -25.5404 0.489078 -8.68746
lFoot  1.78063 -0.259713 3.78012
rThigh  32.8183 -27.8437 -0.371247
rShin  -6.83465 23.0467 -0.167674
rFoot  -1.09033 -0.319077 -4.89689
1759
root  45.6139 36.0261 -18.5152 -119.808 -0.852463 91.7005
abdomen  -2.44666 6.91439 -4.58277
chest  -3.862 -5.89112 -4.3672
neckDummy  9.09964e-021 0 8.72668e-016
neck  -4.8909 7.89615 -10.7847
head  -5.4796 -19.2275 -12.0901
figureHair  0 1.51661e-021 -9.5315e-016
lCollar  -5.15695e-016 -6.42944e-016 -7.59357e-014
lShldr  3.86117 2.58901 -66.1277
lForeArm  19.4114 -24.0608 -0.456241
lHand  0.254698 0.195082 5.2986
rCollar  1.7976e-016 -5.12864e-014 1.62755e-015
rShldr  -55.7028 73.3163 -31.1118
rForeArm  -0.551098 1.0891 20.0884
rHand  0.7732 -16.248 -0.445101
lThigh  -7.0883 5.36811 -3.98004
lShin  -28.6259 0.103233 -9.07096
lFoot  1.50329 -0.242721 5.5606
rThigh  21.2644 -25.0807 0.588281
rShin  16.9003 11.6434 9.62521
rFoot  -2.90925 -0.0111374 -3.3236
